# xmcd
#
# Track frame offsets:
#	150
#	11747
#	22579
#	34881
#	46372
#	58135
#	71446
#	82365
#	96407
#	108268
#	120262
#	133424
#	143665
#	153949
#	165516
#	176319
#	188689
#	199090
#	213439
#	226380
#	236282
#	247312
#	257380
#	268256
#	284261
#	294320
#	307786
#	320891
#	329745
#	337999
#
# Disc length: 4667 seconds
#
# Revision: 0
# Processed by: cddbd v1.4PL0 Copyright (c) Steve Scherf et al.
# Submitted via: EasyCDDAExtractor 4.6.9.1
#
DISCID=b212391e
DTITLE=Slim Whitman - Rose Marie CD 5
DYEAR=1996
DGENRE=Country
TTITLE0=Wherever You Are(1958)
TTITLE1=I'll Sail My Ship Alone(1996)
TTITLE2=River Of Tears(1961)
TTITLE3=Blues Stay Away From Me(1996)
TTITLE4=A Fool Such As I(1960)
TTITLE5=The Letter Edged in Black(1959)
TTITLE6=Too Tired To Care(1996)
TTITLE7=A Tree In The Meadow(1996)
TTITLE8=The Prisoner's Song(1960)
TTITLE9=Heartbreak Hill(1960)
TTITLE10=I'll Never See Maggie Alone(1959)
TTITLE11=When I Call On You(1961)
TTITLE12=You're The Only One(1960)
TTITLE13=Blues Stay Away from Me(1962)
TTITLE14=I'll Sail My Ship Alone(1960)
TTITLE15=What Kind of God (Do You Think You Are)(1959)
TTITLE16=A Tree In The Meadow(1959)
TTITLE17=I'll Walk With God(1960)
TTITLE18=Whispering Hope(1960)
TTITLE19=I'm A Pilgrim(1960)
TTITLE20=An Evening Prayer(1960)
TTITLE21=Jesus Took My Burden(1960)
TTITLE22=Two Loves Have I(1960)
TTITLE23=Sunrise(1960)
TTITLE24=Walk Beside Me(1960)
TTITLE25=Each Step I Take(1960)
TTITLE26=The Great Judgement Morning(1960)
TTITLE27=He Lives On High(1960)
TTITLE28=Today Is Mine(1960)
TTITLE29=When I Go To My Garden(1960)
EXTD=
EXTT0=
EXTT1=
EXTT2=
EXTT3=
EXTT4=
EXTT5=
EXTT6=
EXTT7=
EXTT8=
EXTT9=
EXTT10=
EXTT11=
EXTT12=
EXTT13=
EXTT14=
EXTT15=
EXTT16=
EXTT17=
EXTT18=
EXTT19=
EXTT20=
EXTT21=
EXTT22=
EXTT23=
EXTT24=
EXTT25=
EXTT26=
EXTT27=
EXTT28=
EXTT29=
PLAYORDER=
